# xmcd
#
# Track frame offsets:
# 150
# 32749
# 87080
# 128298
# 163893
# 197617
# 277789
#
# Disc length: 4590 seconds
#
# Revision: 0
# Processed by: cddbd v1.5.1PL0 Copyright (c) Steve Scherf et al.
# Submitted via: Axialis_AX_CDPlayer 2.6
#
DISCID=4d11ec07
DTITLE=BLUES - Gov't Mule (Live) - Classic Mule - The Roxy Atlanta, GA 02-27
DTITLE=98 \n[CD2]
DYEAR=1900
DGENRE=
TTITLE0=Almost Cut My Hair
TTITLE1=Afro Blue
TTITLE2=She's Nineteen Years Old
TTITLE3=Going Out West
TTITLE4=She Caught The Katy
TTITLE5=I Shall Be Released
TTITLE6=Gonna Send You Back To Georgia
EXTD=
EXTT0=
EXTT1=
EXTT2=
EXTT3=
EXTT4=
EXTT5=
EXTT6=
PLAYORDER=
